<mxfile host="app.diagrams.net" modified="2022-05-04T15:54:41.845Z" agent="5.0 (Windows NT 10.0; Win64; x64) AppleWebKit/537.36 (KHTML, like Gecko) Chrome/100.0.4896.127 Safari/537.36" etag="Mhs1UtU9rYSCrliuD-HG" version="17.5.1" type="github">
  <diagram id="C5RBs43oDa-KdzZeNtuy" name="Page-1">
    <mxGraphModel dx="1483" dy="839" grid="1" gridSize="10" guides="1" tooltips="1" connect="1" arrows="1" fold="1" page="1" pageScale="1" pageWidth="1169" pageHeight="827" math="0" shadow="0">
      <root>
        <mxCell id="WIyWlLk6GJQsqaUBKTNV-0" />
        <mxCell id="WIyWlLk6GJQsqaUBKTNV-1" parent="WIyWlLk6GJQsqaUBKTNV-0" />
        <mxCell id="5PW-TfDEuSawlaph0QAC-14" style="edgeStyle=orthogonalEdgeStyle;rounded=0;orthogonalLoop=1;jettySize=auto;html=1;exitX=1;exitY=0.5;exitDx=0;exitDy=0;entryX=0;entryY=0.5;entryDx=0;entryDy=0;" edge="1" parent="WIyWlLk6GJQsqaUBKTNV-1" source="5PW-TfDEuSawlaph0QAC-1" target="5PW-TfDEuSawlaph0QAC-11">
          <mxGeometry relative="1" as="geometry" />
        </mxCell>
        <mxCell id="5PW-TfDEuSawlaph0QAC-15" style="edgeStyle=orthogonalEdgeStyle;rounded=0;orthogonalLoop=1;jettySize=auto;html=1;exitX=1;exitY=0.5;exitDx=0;exitDy=0;entryX=0;entryY=0.5;entryDx=0;entryDy=0;" edge="1" parent="WIyWlLk6GJQsqaUBKTNV-1" source="5PW-TfDEuSawlaph0QAC-1" target="5PW-TfDEuSawlaph0QAC-12">
          <mxGeometry relative="1" as="geometry" />
        </mxCell>
        <mxCell id="5PW-TfDEuSawlaph0QAC-1" value="" style="rounded=1;whiteSpace=wrap;html=1;" vertex="1" parent="WIyWlLk6GJQsqaUBKTNV-1">
          <mxGeometry x="50" y="230" width="120" height="60" as="geometry" />
        </mxCell>
        <mxCell id="5PW-TfDEuSawlaph0QAC-16" style="edgeStyle=orthogonalEdgeStyle;rounded=0;orthogonalLoop=1;jettySize=auto;html=1;exitX=1;exitY=0.5;exitDx=0;exitDy=0;entryX=0;entryY=0.5;entryDx=0;entryDy=0;" edge="1" parent="WIyWlLk6GJQsqaUBKTNV-1" source="5PW-TfDEuSawlaph0QAC-2" target="5PW-TfDEuSawlaph0QAC-13">
          <mxGeometry relative="1" as="geometry" />
        </mxCell>
        <mxCell id="5PW-TfDEuSawlaph0QAC-2" value="" style="rounded=1;whiteSpace=wrap;html=1;" vertex="1" parent="WIyWlLk6GJQsqaUBKTNV-1">
          <mxGeometry x="50" y="450" width="120" height="60" as="geometry" />
        </mxCell>
        <mxCell id="5PW-TfDEuSawlaph0QAC-3" value="" style="whiteSpace=wrap;html=1;fillColor=none;fontStyle=1" vertex="1" parent="WIyWlLk6GJQsqaUBKTNV-1">
          <mxGeometry x="400" y="120" width="240" height="520" as="geometry" />
        </mxCell>
        <mxCell id="5PW-TfDEuSawlaph0QAC-4" value="" style="ellipse;whiteSpace=wrap;html=1;fillColor=none;" vertex="1" parent="WIyWlLk6GJQsqaUBKTNV-1">
          <mxGeometry x="880" y="40" width="130" height="90" as="geometry" />
        </mxCell>
        <mxCell id="5PW-TfDEuSawlaph0QAC-5" value="" style="ellipse;whiteSpace=wrap;html=1;fillColor=none;" vertex="1" parent="WIyWlLk6GJQsqaUBKTNV-1">
          <mxGeometry x="880" y="160" width="130" height="90" as="geometry" />
        </mxCell>
        <mxCell id="5PW-TfDEuSawlaph0QAC-6" value="" style="ellipse;whiteSpace=wrap;html=1;fillColor=none;" vertex="1" parent="WIyWlLk6GJQsqaUBKTNV-1">
          <mxGeometry x="880" y="280" width="140" height="100" as="geometry" />
        </mxCell>
        <mxCell id="5PW-TfDEuSawlaph0QAC-7" value="" style="ellipse;whiteSpace=wrap;html=1;fillColor=none;" vertex="1" parent="WIyWlLk6GJQsqaUBKTNV-1">
          <mxGeometry x="880" y="400" width="130" height="90" as="geometry" />
        </mxCell>
        <mxCell id="5PW-TfDEuSawlaph0QAC-8" value="" style="ellipse;whiteSpace=wrap;html=1;fillColor=none;" vertex="1" parent="WIyWlLk6GJQsqaUBKTNV-1">
          <mxGeometry x="880" y="520" width="130" height="90" as="geometry" />
        </mxCell>
        <mxCell id="5PW-TfDEuSawlaph0QAC-9" value="" style="ellipse;whiteSpace=wrap;html=1;fillColor=none;" vertex="1" parent="WIyWlLk6GJQsqaUBKTNV-1">
          <mxGeometry x="880" y="640" width="130" height="90" as="geometry" />
        </mxCell>
        <mxCell id="5PW-TfDEuSawlaph0QAC-11" value="" style="rounded=1;whiteSpace=wrap;html=1;fillColor=none;" vertex="1" parent="WIyWlLk6GJQsqaUBKTNV-1">
          <mxGeometry x="460" y="160" width="120" height="60" as="geometry" />
        </mxCell>
        <mxCell id="5PW-TfDEuSawlaph0QAC-12" value="" style="rounded=1;whiteSpace=wrap;html=1;fillColor=none;" vertex="1" parent="WIyWlLk6GJQsqaUBKTNV-1">
          <mxGeometry x="460" y="340" width="120" height="60" as="geometry" />
        </mxCell>
        <mxCell id="5PW-TfDEuSawlaph0QAC-13" value="" style="rounded=1;whiteSpace=wrap;html=1;fillColor=none;" vertex="1" parent="WIyWlLk6GJQsqaUBKTNV-1">
          <mxGeometry x="465" y="500" width="120" height="60" as="geometry" />
        </mxCell>
        <mxCell id="5PW-TfDEuSawlaph0QAC-31" style="edgeStyle=orthogonalEdgeStyle;rounded=0;orthogonalLoop=1;jettySize=auto;html=1;exitX=1;exitY=0.5;exitDx=0;exitDy=0;entryX=0;entryY=0.5;entryDx=0;entryDy=0;fontSize=20;" edge="1" parent="WIyWlLk6GJQsqaUBKTNV-1" source="5PW-TfDEuSawlaph0QAC-17" target="5PW-TfDEuSawlaph0QAC-4">
          <mxGeometry relative="1" as="geometry" />
        </mxCell>
        <mxCell id="5PW-TfDEuSawlaph0QAC-32" style="edgeStyle=orthogonalEdgeStyle;rounded=0;orthogonalLoop=1;jettySize=auto;html=1;exitX=1;exitY=0.5;exitDx=0;exitDy=0;entryX=0;entryY=0.5;entryDx=0;entryDy=0;fontSize=20;" edge="1" parent="WIyWlLk6GJQsqaUBKTNV-1" source="5PW-TfDEuSawlaph0QAC-17" target="5PW-TfDEuSawlaph0QAC-5">
          <mxGeometry relative="1" as="geometry" />
        </mxCell>
        <mxCell id="5PW-TfDEuSawlaph0QAC-34" style="edgeStyle=orthogonalEdgeStyle;rounded=0;orthogonalLoop=1;jettySize=auto;html=1;exitX=1;exitY=0.5;exitDx=0;exitDy=0;entryX=0;entryY=0.5;entryDx=0;entryDy=0;fontSize=20;" edge="1" parent="WIyWlLk6GJQsqaUBKTNV-1" source="5PW-TfDEuSawlaph0QAC-17" target="5PW-TfDEuSawlaph0QAC-6">
          <mxGeometry relative="1" as="geometry" />
        </mxCell>
        <mxCell id="5PW-TfDEuSawlaph0QAC-17" value="&lt;font style=&quot;font-size: 20px&quot;&gt;Topic A&lt;/font&gt;" style="text;html=1;strokeColor=none;fillColor=none;align=center;verticalAlign=middle;whiteSpace=wrap;rounded=0;" vertex="1" parent="WIyWlLk6GJQsqaUBKTNV-1">
          <mxGeometry x="470" y="175" width="100" height="30" as="geometry" />
        </mxCell>
        <mxCell id="5PW-TfDEuSawlaph0QAC-18" value="&lt;font style=&quot;font-size: 20px&quot;&gt;Topic B&lt;/font&gt;" style="text;html=1;strokeColor=none;fillColor=none;align=center;verticalAlign=middle;whiteSpace=wrap;rounded=0;" vertex="1" parent="WIyWlLk6GJQsqaUBKTNV-1">
          <mxGeometry x="470" y="355" width="100" height="30" as="geometry" />
        </mxCell>
        <mxCell id="5PW-TfDEuSawlaph0QAC-19" value="&lt;font style=&quot;font-size: 20px&quot;&gt;Topic C&lt;/font&gt;" style="text;html=1;strokeColor=none;fillColor=none;align=center;verticalAlign=middle;whiteSpace=wrap;rounded=0;" vertex="1" parent="WIyWlLk6GJQsqaUBKTNV-1">
          <mxGeometry x="475" y="515" width="100" height="30" as="geometry" />
        </mxCell>
        <mxCell id="5PW-TfDEuSawlaph0QAC-20" value="&lt;font style=&quot;font-size: 20px&quot;&gt;Publisher 1&lt;/font&gt;" style="text;html=1;strokeColor=none;fillColor=none;align=center;verticalAlign=middle;whiteSpace=wrap;rounded=0;" vertex="1" parent="WIyWlLk6GJQsqaUBKTNV-1">
          <mxGeometry x="50" y="245" width="120" height="30" as="geometry" />
        </mxCell>
        <mxCell id="5PW-TfDEuSawlaph0QAC-22" value="&lt;font style=&quot;font-size: 20px&quot;&gt;Publisher 2&lt;br&gt;&lt;/font&gt;" style="text;html=1;strokeColor=none;fillColor=none;align=center;verticalAlign=middle;whiteSpace=wrap;rounded=0;" vertex="1" parent="WIyWlLk6GJQsqaUBKTNV-1">
          <mxGeometry x="50" y="465" width="120" height="30" as="geometry" />
        </mxCell>
        <mxCell id="5PW-TfDEuSawlaph0QAC-24" value="&lt;font style=&quot;font-size: 20px&quot;&gt;Subscriber 1&lt;/font&gt;" style="text;html=1;strokeColor=none;fillColor=none;align=center;verticalAlign=middle;whiteSpace=wrap;rounded=0;" vertex="1" parent="WIyWlLk6GJQsqaUBKTNV-1">
          <mxGeometry x="885" y="70" width="120" height="30" as="geometry" />
        </mxCell>
        <mxCell id="5PW-TfDEuSawlaph0QAC-25" value="&lt;font style=&quot;font-size: 20px&quot;&gt;Subscriber 2&lt;/font&gt;" style="text;html=1;strokeColor=none;fillColor=none;align=center;verticalAlign=middle;whiteSpace=wrap;rounded=0;" vertex="1" parent="WIyWlLk6GJQsqaUBKTNV-1">
          <mxGeometry x="885" y="190" width="120" height="30" as="geometry" />
        </mxCell>
        <mxCell id="5PW-TfDEuSawlaph0QAC-26" value="&lt;font style=&quot;font-size: 20px&quot;&gt;Subscriber 3&lt;/font&gt;" style="text;html=1;strokeColor=none;fillColor=none;align=center;verticalAlign=middle;whiteSpace=wrap;rounded=0;" vertex="1" parent="WIyWlLk6GJQsqaUBKTNV-1">
          <mxGeometry x="890" y="315" width="120" height="30" as="geometry" />
        </mxCell>
        <mxCell id="5PW-TfDEuSawlaph0QAC-27" value="&lt;font style=&quot;font-size: 20px&quot;&gt;Subscriber 4&lt;/font&gt;" style="text;html=1;strokeColor=none;fillColor=none;align=center;verticalAlign=middle;whiteSpace=wrap;rounded=0;" vertex="1" parent="WIyWlLk6GJQsqaUBKTNV-1">
          <mxGeometry x="885" y="430" width="120" height="30" as="geometry" />
        </mxCell>
        <mxCell id="5PW-TfDEuSawlaph0QAC-29" value="&lt;font style=&quot;font-size: 20px&quot;&gt;Subscriber 5&lt;/font&gt;" style="text;html=1;strokeColor=none;fillColor=none;align=center;verticalAlign=middle;whiteSpace=wrap;rounded=0;" vertex="1" parent="WIyWlLk6GJQsqaUBKTNV-1">
          <mxGeometry x="885" y="550" width="120" height="30" as="geometry" />
        </mxCell>
        <mxCell id="5PW-TfDEuSawlaph0QAC-30" value="&lt;font style=&quot;font-size: 20px&quot;&gt;Subscriber 6&lt;/font&gt;" style="text;html=1;strokeColor=none;fillColor=none;align=center;verticalAlign=middle;whiteSpace=wrap;rounded=0;" vertex="1" parent="WIyWlLk6GJQsqaUBKTNV-1">
          <mxGeometry x="885" y="670" width="120" height="30" as="geometry" />
        </mxCell>
      </root>
    </mxGraphModel>
  </diagram>
</mxfile>
